<?xml version="1.0" encoding="UTF-8" standalone="no"?>
<svg width="300px" height="600px" viewBox="0 0 300 600" version="1.1" xmlns="http://www.w3.org/2000/svg" xmlns:xlink="http://www.w3.org/1999/xlink">
    <!-- Generator: Sketch 50.2 (55047) - http://www.bohemiancoding.com/sketch -->
    <title>300_600_claim_2</title>
    <desc>Created with Sketch.</desc>
    <defs></defs>
    <g id="300_600_claim_2" stroke="none" stroke-width="1" fill="none" fill-rule="evenodd">
        <path d="M77.8259039,63.1029098 C77.8263778,63.1029064 77.8268113,63.1030026 77.8272043,63.103199 C77.8267884,63.1030604 77.8263549,63.1029641 77.8259039,63.1029098 Z M77.8259039,63.1029099 C77.7048294,63.1037945 74.9534221,69.6071565 74.7024045,70.2095986 C73.7448045,72.5279985 72.8880046,74.8967983 72.2328046,77.3159982 C73.3920046,74.9975983 74.6016045,72.7799985 76.0632044,70.6127986 C77.3736043,68.6975987 78.9360042,67.0343988 80.3472042,65.2199989 C80.3472042,65.2199989 80.8008041,64.262399 81.0528041,64.211999 C81.0528041,64.211999 80.4984041,65.0183989 80.5488041,64.9679989 L81.2544041,64.060799 C81.2040041,64.060799 81.2040041,64.060799 81.1536041,64.010399 C81.2544041,63.304799 82.413604,62.2967991 82.867204,61.7927991 C83.522404,61.0367992 84.2280039,60.3311992 84.9336039,59.6759992 C86.0424038,58.5671993 87.6048037,56.6519994 89.1672036,56.1983995 C91.7880035,55.4423995 94.0056033,58.3151993 94.2072033,60.7343992 C94.1568033,60.5831992 94.2072033,61.0367992 94.2072033,60.9359992 C94.2072033,61.2383992 94.2576033,61.8935991 94.1568033,61.9439991 C94.2072033,61.8935991 94.1064033,61.5911991 94.0560033,61.3895991 C94.1064033,62.2967991 94.0056033,63.103199 93.8544033,63.959999 C93.9552033,63.707999 94.1064033,63.355199 94.1064033,63.355199 C94.2072033,63.808799 93.8544033,64.463999 93.7536034,64.9175989 C93.4008034,66.1271989 92.9976034,67.3367988 92.4936034,68.4455987 C91.5864035,70.6631986 90.2760036,72.5279985 88.7640036,74.3423984 C87.2520037,76.2071983 85.6896038,77.8703982 83.7744039,79.3319981 C83.068804,79.886398 82.363204,80.087998 81.6576041,80.491198 C81.0024041,80.843998 80.4984041,81.4487979 79.7928042,81.8519979 C77.9784043,82.9607979 75.7104044,84.3719978 73.5936046,84.7247978 C73.2408046,84.7751977 72.8376046,84.7751977 72.5352046,84.7247978 C72.2328046,84.7247978 71.8800047,84.6743978 71.5776047,84.6239978 C71.1744047,84.3719978 70.9224047,84.5231978 70.8720047,85.0271977 C70.0656048,85.9343977 69.6624048,87.8495976 69.2592048,89.0087975 C68.2512049,91.6799973 67.2432049,94.5527972 66.890405,97.375197 C66.840005,97.324797 66.789605,97.274397 66.789605,97.173597 C65.882405,98.131197 63.1608052,98.6351969 62.7072052,96.971997 C62.6568052,96.871197 62.6568052,96.770397 62.6568052,96.719997 C62.6064052,96.770397 62.6064052,96.820797 62.6064052,96.921597 C61.8504053,95.9639971 62.6568052,93.7967972 62.8584052,92.8391973 L63.9168051,87.6983976 C64.2696051,86.1863977 64.6728051,84.6239978 65.328005,83.2127978 C65.529605,82.7087979 65.832005,82.2551979 66.033605,81.7511979 C66.084005,81.7007979 66.336005,80.339998 66.436805,80.289598 C66.487205,80.339998 66.487205,80.440798 66.487205,80.491198 C66.537605,80.339998 66.588005,80.239198 66.588005,80.087998 C66.386405,80.541598 66.638405,79.2815981 66.638405,79.2311981 C66.840005,78.6263981 67.0920049,78.0215982 67.3440049,77.4167982 C67.7472049,76.4591982 67.9992049,75.6023983 68.2008049,74.6447984 C68.3016049,74.2415984 69.8136048,70.0583986 70.3176047,70.1591986 C70.3680047,70.1591986 70.1664048,70.5119986 70.2168048,70.5623986 C70.4184047,70.1087986 70.6200047,69.6551986 70.7712047,69.2015987 C70.7208047,69.3023987 70.6704047,69.4031987 70.5696047,69.4535987 C70.4688047,69.4031987 73.2408046,63.405599 73.4928046,62.8007991 C73.9464045,61.6919991 74.4000045,60.4823992 75.0552045,59.4743993 C75.3576044,59.0711993 75.7104044,58.9199993 75.9120044,58.6175993 C76.0632044,58.4159993 76.1136044,58.0127993 76.2648044,57.7607994 C76.5168044,57.2567994 77.0712043,56.0471995 77.7264043,55.7951995 C78.7848042,55.3415995 79.5408042,56.7527994 79.8432042,57.5591994 C80.1456042,58.3655993 79.9944042,58.6679993 79.6920042,59.2223993 L79.8432042,59.1215993 C79.9944042,59.1719993 78.9864042,61.1375992 78.7848042,61.0871992 C78.7344042,61.0871992 78.8352042,60.8351992 78.9360042,60.6335992 C77.4744043,63.304799 76.2144044,66.0767989 75.0552045,68.8991987 C75.2059885,68.5976306 77.6624342,63.0832624 77.8259039,63.1029099 Z M75.7113432,75.2987233 C75.7652761,75.2258962 75.8386403,75.1991983 75.9120044,75.1991983 C75.9120044,75.1991983 74.2992045,78.2735981 74.0976045,78.5759981 C73.3920046,79.886398 72.7368046,81.196798 72.0816046,82.5071979 C72.2832046,82.4063979 74.2992045,81.4991979 74.4000045,81.5999979 C74.4000045,81.6503979 73.3920046,82.1543979 72.9888046,82.4063979 C78.0792043,80.289598 82.312804,76.3079983 85.3872039,71.7215985 C84.3792039,73.1831984 83.220004,74.5439984 82.0104041,75.8543983 C81.2544041,76.6103982 80.4480041,77.4167982 79.6416042,78.1223981 C79.2384042,78.4247981 78.3312043,78.9287981 77.9280043,79.3319981 C78.3816043,78.7775981 79.3392042,78.2735981 79.7928042,77.8199982 C80.3976041,77.3159982 81.0024041,76.7615982 81.5568041,76.2071983 C82.766404,74.8967983 83.9256039,73.5359984 84.9336039,72.0743985 C86.8992038,69.3023987 88.8648036,65.8751989 89.1168036,62.3975991 C89.0664036,62.4983991 89.0664036,62.5487991 89.1168036,62.3471991 L89.1168036,62.2967991 C89.3688036,57.4583994 84.3792039,63.959999 83.522404,64.9679989 C80.8288893,68.2101925 77.937914,71.748577 75.7288816,75.2900181 L75.7113432,75.2987233 Z M64.3200051,88.4039975 C64.0680051,89.3111975 63.8664051,90.5711974 63.6648051,91.5791973 C64.5216051,88.7063975 65.630405,85.7327977 66.537605,82.8095979 C65.882405,84.7751977 64.8240051,86.2367977 64.3200051,88.4039975 Z M63.3120052,94.8551971 C63.4128052,94.3007972 63.2616052,93.6959972 63.3624052,93.1415972 C63.1608052,93.9479972 63.0096052,94.7039972 62.8584052,95.5607971 C62.9088052,95.3087971 63.2616052,95.0567971 63.3120052,94.8551971 Z M74.4000045,70.5623986 L74.3496045,70.6127986 L73.3416046,73.1831984 L74.4000045,70.5623986 Z M74.4063045,70.4552986 C74.4000045,70.4741986 74.4000045,70.4867986 74.4000045,70.5119986 C74.4000045,70.4867986 74.4126045,70.4741986 74.4252045,70.4552986 L74.4063045,70.4552986 Z M74.5512045,70.1591986 L74.5512045,70.1087986 L74.5008045,70.2095986 L74.5512045,70.1591986 Z M75.2316045,76.0748983 C75.2442045,76.0559983 75.2568045,76.0307983 75.2568045,76.0055983 C75.2568045,76.0307983 75.2442045,76.0433983 75.2316045,76.0559983 L75.2316045,76.0748983 Z M107.059203,81.7511979 C107.260803,82.1543979 107.109603,82.4063979 106.857603,82.7087979 L105.295203,84.7751977 L102.573603,88.3031975 C101.868003,89.2103975 101.011203,90.0671974 100.305603,90.9743974 C99.549603,91.9823973 98.894403,93.0407973 98.0376031,93.9983972 C97.1304032,94.9559971 96.0720032,95.9639971 94.8624033,96.619197 C94.0056033,97.072797 93.1992034,97.123197 92.2920034,96.871197 C90.9816035,96.518397 89.8224036,95.7119971 88.9656036,94.7039972 C88.7136037,94.4015972 88.4616037,94.1495972 88.4112037,93.7463972 C88.3608037,93.4439972 88.3104037,93.0911973 88.3104037,92.7383973 C88.2600037,92.1335973 88.4616037,91.6799973 88.5624037,91.0751974 C88.6632037,90.4199974 88.9656036,89.8151974 89.0664036,89.1599975 C89.1672036,88.4543975 89.3688036,87.7991976 89.4696036,87.1439976 C89.5200036,86.5391976 89.4192036,85.8839977 89.5704036,85.2791977 C89.6712036,84.8759977 89.9736036,84.4727978 90.1248036,84.0191978 C89.9736036,84.3215978 89.7216036,84.6239978 89.6712036,84.8759977 C89.5200036,85.2791977 89.4192036,85.6823977 89.2680036,86.0351977 C89.1168036,86.4383976 89.0664036,86.7911976 88.9152036,87.1943976 C88.7136037,87.6479976 88.5120037,88.0511976 88.4616037,88.5551975 C88.4112037,89.0087975 88.4616037,89.4623975 88.4112037,89.9159974 C88.3104037,90.3695974 88.2096037,90.7223974 88.2096037,91.1759974 C88.2096037,91.3271974 88.3104037,91.6295973 88.3104037,91.7303973 C88.3104037,91.9319973 88.2096037,92.1839973 88.2096037,92.4359973 C88.2096037,92.8895973 88.3104037,93.3431972 88.3608037,93.8471972 C87.5544037,92.4359973 87.7056037,91.0247974 87.9576037,89.5127975 C88.2096037,88.0007976 88.4112037,86.5391976 88.7640036,85.0775977 C89.4192036,82.1039979 90.7800035,79.1807981 92.6952034,76.8119982 C94.2576033,74.7455983 96.3240032,73.1831984 99.045603,73.6871984 C100.053603,73.8887984 101.162403,74.3423984 101.817603,75.1991983 C102.523203,76.1567983 102.472803,77.3663982 102.120003,78.4751981 C101.464803,80.440798 99.801603,82.0031979 98.2392031,83.3135978 C97.5840031,83.8679978 96.8784032,84.4223978 96.1224032,84.8759977 C95.6184032,85.1783977 95.0640033,85.3799977 94.5096033,85.5815977 L93.6528034,85.8839977 C93.3000034,85.9847977 93.2496034,85.9343977 93.0984034,86.2367977 C92.8464034,86.7407976 92.9976034,87.2447976 92.8968034,87.7487976 C92.7960034,88.4039975 92.6448034,89.0087975 92.4936034,89.6639975 C92.2416034,90.8735974 91.8384035,92.4359973 92.1408034,93.6959972 C92.6952034,96.2663971 96.9288032,92.2847973 97.6848031,91.5791973 C98.1888031,91.1255974 98.6424031,90.6215974 99.096003,90.1679974 C99.348003,89.8655974 99.650403,89.6135975 99.852003,89.3111975 C99.852003,89.3111975 99.952803,89.0591975 99.952803,88.9583975 C100.557603,88.0007976 101.364003,87.0935976 102.120003,86.1863977 C103.027203,85.1279977 103.833603,84.0191978 104.690403,82.8599979 C105.144003,82.2047979 106.202403,80.339998 107.008803,81.7007979 L107.008803,81.7511979 C107.059203,81.8015979 107.059203,81.8015979 107.059203,81.7511979 Z M94.5600033,82.3055979 C94.3080033,82.8095979 94.1568033,83.3639978 93.9048033,83.9183978 C95.5176032,83.0615979 96.9792032,81.9023979 98.1384031,80.541598 L98.995203,79.4327981 C99.146403,79.1807981 99.398403,79.0295981 99.499203,78.7271981 C99.549603,78.4751981 99.448803,78.2735981 99.499203,77.9711982 L99.700803,76.9127982 C99.751203,76.4087982 99.549603,75.0983983 98.7936031,75.2495983 C98.4408031,75.3503983 98.0880031,75.8039983 97.8864031,76.0559983 L96.9792032,77.2655982 C95.9208032,78.8279981 95.3664033,80.541598 94.6104033,82.1543979 C94.6104033,82.1543979 94.6104033,82.2047979 94.5600033,82.3055979 Z M124.094402,81.9527979 C124.245602,82.6583979 123.741602,83.5151978 123.439202,84.1199978 C123.036002,84.9767977 122.532002,85.7831977 121.977602,86.5895976 C120.818402,88.3031975 119.558402,90.0167974 118.348802,91.7303973 C117.139202,93.3935972 115.828802,95.0567971 114.216002,96.4175971 C113.913602,96.619197 111.595202,98.4839969 111.444002,98.4335969 C111.444002,98.3831969 111.494402,98.3327969 111.544802,98.2823969 L111.192002,98.4335969 C111.444002,98.3831969 110.486402,99.0383969 110.234402,99.1391969 C109.528802,99.2903969 108.772802,99.0887969 108.168002,98.6855969 C107.512803,98.2823969 107.160003,97.677597 106.857603,96.971997 C106.353603,95.8631971 106.303203,94.8047972 106.504803,93.5951972 C106.555203,93.3431972 107.260803,90.4199974 107.613603,90.4703974 C107.714403,90.4703974 107.512803,90.8735974 107.563203,90.9239974 L107.916003,89.6639975 C107.764803,89.6135975 110.436002,83.9687978 110.688002,83.6159978 C109.176002,83.9183978 107.260803,83.8679978 106.202403,82.5575979 C105.900003,82.1543979 106.000803,81.8015979 105.900003,81.4991979 C105.748803,81.095998 105.547203,80.894398 105.446403,80.541598 C104.942403,78.0719981 107.815203,74.6447984 110.234402,76.3079983 L110.133602,76.1567983 C110.184002,75.8543983 110.788802,76.6103982 110.839202,76.8623982 C110.839202,77.0639982 110.436002,78.4751981 110.184002,78.3743981 C110.133602,78.3743981 110.486402,77.4671982 110.486402,77.4167982 C110.133602,78.3743981 109.075202,79.4327981 108.974402,80.440798 C108.873602,81.196798 109.276802,81.196798 109.932002,81.347998 C110.889602,81.5999979 112.401602,81.4487979 113.611202,81.8015979 C112.804802,81.5495979 111.847202,81.4991979 111.192002,81.3983979 C111.192002,81.3983979 111.141602,81.3983979 111.141602,81.347998 C111.897602,81.4487979 112.704002,81.4487979 113.359202,81.5999979 C114.820802,81.9527979 115.728002,82.5071979 115.123202,84.0695978 C114.518402,85.5311977 113.762402,86.9927976 113.107202,88.4543975 C112.502402,89.8655974 111.998402,91.3775974 111.444002,92.8391973 C111.292802,93.3431972 110.184002,95.4599971 110.587202,95.9639971 C111.091202,96.568797 113.863202,94.0487972 114.619202,93.2423972 C114.468002,93.3935972 114.316802,93.3935972 114.216002,93.4943972 C114.115202,93.4943972 115.224002,92.0831973 115.375202,91.8815973 L116.836802,90.0167974 L119.558402,86.4383976 L122.330402,82.7087979 C122.582402,82.4063979 123.792002,80.642398 124.094402,81.9527979 Z M109.024802,88.0007976 C108.420002,89.4119975 107.815203,90.8735974 107.462403,92.3855973 C107.815203,91.0751974 108.369602,89.8151974 108.873602,88.6055975 L109.831202,86.3879977 C110.083202,85.9343977 111.141602,83.4647978 111.393602,83.3135978 C111.040802,83.4143978 110.335202,85.2287977 110.234402,85.3799977 C109.780802,86.2367977 109.377602,87.0935976 109.024802,88.0007976 Z M107.93976,98.003449 C107.931774,97.9956662 107.923854,97.9878486 107.916003,97.979997 C107.931772,97.979997 107.942607,97.984931 107.950052,97.9932552 L107.93976,98.003449 Z M107.93976,98.003449 C108.239374,98.295415 108.63338,98.5383227 109.075202,98.6855969 C108.520802,98.4839969 108.117602,98.080797 107.815203,97.677597 L107.815203,97.727997 C107.764803,97.677597 107.714403,97.627197 107.714403,97.576797 L107.764803,97.627197 C107.551002,97.1568359 107.337201,96.6864747 107.215738,96.3700089 L107.109603,95.8127971 L107.109603,95.7623971 C107.059203,95.6615971 107.059203,95.6111971 107.059203,95.6111971 C107.059203,95.6111971 107.059203,95.6615971 107.109603,95.7119971 L107.109603,95.4599971 C107.059203,94.7543972 107.109603,94.0991972 107.210403,93.4439972 L107.210403,93.3935972 C107.109603,93.8471972 107.059203,94.2503972 107.059203,94.7543972 C107.008803,95.3591971 107.059203,96.0647971 107.210403,96.669597 C107.260803,96.820797 107.664003,97.677597 107.966403,98.080797 C107.966403,98.0461663 107.966403,98.0115357 107.950052,97.9932552 L107.93976,98.003449 Z M107.215738,96.3700089 L107.311203,96.871197 L107.160003,96.2159971 C107.175282,96.2618364 107.194036,96.3134663 107.215738,96.3700089 Z M109.226402,81.045598 C109.125602,80.995198 109.024802,80.743198 109.024802,80.642398 C109.075202,80.743198 109.377602,80.995198 109.377602,80.995198 C109.629602,81.196798 109.982402,81.297598 110.385602,81.347998 C109.932002,81.297598 109.478402,81.247198 109.226402,81.045598 Z M114.518402,84.9767977 L114.518402,84.9263977 L113.460002,87.1943976 L114.518402,84.9767977 Z M107.260415,93.2498006 C107.255742,93.2929311 107.210403,93.2953943 107.210403,93.3431972 L107.210403,93.3935972 C107.210403,93.3455502 107.256206,93.2975032 107.260483,93.2494562 L107.260415,93.2498006 Z M114.568802,84.8255977 L114.518402,84.8759977 L114.568802,84.8759977 L114.568802,84.8255977 Z M114.568802,84.8255977 L114.518402,84.8759977 L114.568802,84.8759977 L114.568802,84.8255977 Z M107.336403,92.5052973 C107.349003,92.4737973 107.361603,92.4359973 107.361603,92.3855973 C107.361603,92.4359973 107.349003,92.4737973 107.336403,92.5052973 Z M107.336403,92.5052973 C107.323803,92.5367973 107.311203,92.5619973 107.311203,92.5871973 C107.311203,92.5619973 107.323803,92.5367973 107.336403,92.5052973 Z M107.512803,97.223997 C107.512803,97.274397 107.563203,97.274397 107.563203,97.324797 C107.563203,97.274397 107.512803,97.223997 107.512803,97.223997 Z M109.075202,80.541598 C109.024802,80.541598 109.024802,80.591998 109.024802,80.591998 L109.075202,80.541598 Z M143.5992,81.6503979 C145.0608,83.5151978 139.164001,83.9183978 138.609601,84.0191978 C138.508801,84.0191978 137.853601,84.2207978 137.904001,84.1703978 C137.400001,84.3719978 137.500801,84.3215978 137.148001,84.7751977 C136.744801,85.3799977 136.392001,86.0351977 136.039201,86.6399976 C135.837601,86.8415976 134.023201,89.5127975 133.670401,89.3615975 C133.670401,89.3615975 134.073601,88.8575975 134.023201,88.8071975 L132.561601,90.5207974 C132.712801,90.3695974 132.813601,90.3191974 132.813601,90.3695974 C132.511201,91.2263974 130.848001,92.2343973 130.092001,92.7887973 C129.285601,93.3935972 128.277601,93.9479972 127.219201,94.0991972 C126.211201,94.1999972 125.102401,93.9983972 124.144802,93.5447972 C121.171202,92.0831973 119.407202,88.0511976 121.020002,84.9767977 C121.876802,83.3639978 122.481602,81.5495979 123.691202,79.936798 C124.396802,79.0799981 125.152801,78.2231981 126.110401,77.6183982 C126.513601,77.3159982 126.967201,77.0639982 127.471201,76.8623982 C127.824001,76.6607982 128.580001,76.6103982 128.832001,76.4087982 C129.134401,76.2071983 129.436801,74.8967983 129.638401,74.4935984 C129.840001,74.0903984 130.092001,73.6871984 130.344001,73.3343984 C131.049601,72.3263985 131.906401,71.3183986 132.964801,70.7135986 C134.678401,69.7559986 136.392001,70.7135986 137.652001,71.9735985 C137.652001,71.9735985 138.508801,72.5279985 138.458401,72.8303985 L138.256801,72.6287985 L138.458401,73.0319984 L138.508801,73.0823984 C138.357601,72.6791985 138.962401,73.4351984 138.962401,73.4351984 C139.214401,73.8383984 139.365601,74.2919984 139.466401,74.7455983 C139.617601,75.4511983 139.567201,76.2071983 139.466401,76.9127982 C139.264801,78.7775981 138.710401,80.692798 138.156001,82.5071979 C139.668001,82.2551979 141.180001,81.9023979 142.6416,81.5999979 C142.9944,81.4991979 143.3472,81.247198 143.5992,81.5999979 C143.649439,81.7004753 143.599522,81.650719 143.599202,81.6503995 L143.5992,81.6503979 Z M143.5992,81.6503979 C143.5992,81.6503979 143.5992,81.6503979 143.5992,81.6503979 C143.5992,81.6503979 143.5992,81.6503979 143.5992,81.6503979 Z M126.160801,91.8311973 C129.688801,91.1759974 132.410401,87.0935976 133.872001,84.1703978 C131.654401,83.8679978 128.932801,82.9103979 128.378401,80.390398 C128.025601,80.793598 127.320001,82.0031979 126.564001,83.5151978 L126.866401,83.0615979 C126.765601,83.5655978 121.927202,92.4359973 126.110401,91.8311973 L126.160801,91.8311973 Z M136.089601,77.8703982 C136.341601,76.6103982 137.047201,74.1407984 136.291201,72.8303985 C135.283201,71.2679986 133.418401,73.5359984 132.662401,74.5439984 C132.612001,74.5439984 132.612001,74.5943984 132.612001,74.5943984 L132.561601,74.6951983 L132.561601,74.6447984 C132.511201,74.7455983 132.460801,74.7959983 132.511201,74.7959983 C132.259201,75.1487983 131.956801,75.4511983 131.654401,76.0055983 C131.704801,75.9551983 132.259201,75.0479983 132.309601,75.1991983 C132.460801,75.5015983 131.503201,77.1143982 131.352001,77.4167982 C131.049601,78.2231981 130.797601,79.0295981 130.696801,79.886398 C130.596001,80.743198 130.495201,81.7007979 131.200801,82.3055979 C131.604001,82.6583979 132.259201,82.7591979 132.813601,82.8095979 C133.116001,82.8599979 133.771201,82.9607979 134.073601,82.8599979 C134.577601,82.7591979 134.426401,82.9103979 134.678401,82.4063979 C135.434401,81.146398 135.736801,79.2815981 136.089601,77.8703982 Z M132.612001,74.5943984 L132.662401,74.5439984 C132.662401,74.5943984 132.612001,74.5943984 132.612001,74.5943984 Z M173.536799,81.7511979 C173.738399,82.1543979 173.587199,82.4063979 173.335199,82.7087979 L171.772799,84.7751977 L169.051199,88.3031975 C168.345599,89.2103975 167.488799,90.0671974 166.783199,90.9743974 C166.027199,91.9823973 165.371999,93.0407973 164.515199,93.9983972 C163.607999,94.9559971 162.549599,95.9639971 161.339999,96.619197 C160.483199,97.072797 159.676799,97.123197 158.769599,96.871197 C157.4592,96.518397 156.3,95.7119971 155.4432,94.7039972 C155.1912,94.4015972 154.9392,94.1495972 154.8888,93.7463972 C154.8384,93.4439972 154.788,93.0911973 154.788,92.7383973 C154.7376,92.1335973 154.9392,91.6799973 155.04,91.0751974 C155.1408,90.4199974 155.4432,89.8151974 155.544,89.1599975 C155.6448,88.4543975 155.8464,87.7991976 155.9472,87.1439976 C155.9976,86.5391976 155.8968,85.8839977 156.048,85.2791977 C156.1488,84.8759977 156.4512,84.4727978 156.6024,84.0191978 C156.4512,84.3215978 156.1992,84.6239978 156.1488,84.8759977 C155.9976,85.2791977 155.8968,85.6823977 155.7456,86.0351977 C155.5944,86.4383976 155.544,86.7911976 155.3928,87.1943976 C155.1912,87.6479976 154.9896,88.0511976 154.9392,88.5551975 C154.8888,89.0087975 154.9392,89.4623975 154.8888,89.9159974 C154.788,90.3695974 154.6872,90.7223974 154.6872,91.1759974 C154.6872,91.3271974 154.788,91.6295973 154.788,91.7303973 C154.788,91.9319973 154.6872,92.1839973 154.6872,92.4359973 C154.6872,92.8895973 154.788,93.3431972 154.8384,93.8471972 C154.032,92.4359973 154.1832,91.0247974 154.4352,89.5127975 C154.6872,88.0007976 154.8888,86.5391976 155.2416,85.0775977 C155.8968,82.1039979 157.2576,79.1807981 159.172799,76.8119982 C160.735199,74.7455983 162.801599,73.1831984 165.523199,73.6871984 C166.531199,73.8887984 167.639999,74.3423984 168.295199,75.1991983 C169.000799,76.1567983 168.950399,77.3663982 168.597599,78.4751981 C167.942399,80.440798 166.279199,82.0031979 164.716799,83.3135978 C164.061599,83.8679978 163.355999,84.4223978 162.599999,84.8759977 C162.095999,85.1783977 161.541599,85.3799977 160.987199,85.5815977 L160.130399,85.8839977 C159.777599,85.9847977 159.727199,85.9343977 159.575999,86.2367977 C159.323999,86.7407976 159.475199,87.2447976 159.374399,87.7487976 C159.273599,88.4039975 159.122399,89.0087975 158.971199,89.6639975 C158.719199,90.8735974 158.316,92.4359973 158.618399,93.6959972 C159.172799,96.2663971 163.406399,92.2847973 164.162399,91.5791973 C164.666399,91.1255974 165.119999,90.6215974 165.573599,90.1679974 C165.825599,89.8655974 166.127999,89.6135975 166.329599,89.3111975 C166.329599,89.3111975 166.430399,89.0591975 166.430399,88.9583975 C167.035199,88.0007976 167.841599,87.0935976 168.597599,86.1863977 C169.504799,85.1279977 170.311199,84.0191978 171.167999,82.8599979 C171.621599,82.2047979 172.679999,80.339998 173.486399,81.7007979 L173.486399,81.7511979 C173.536799,81.8015979 173.536799,81.8015979 173.536799,81.7511979 Z M161.037599,82.3055979 C160.785599,82.8095979 160.634399,83.3639978 160.382399,83.9183978 C161.995199,83.0615979 163.456799,81.9023979 164.615999,80.541598 L165.472799,79.4327981 C165.623999,79.1807981 165.875999,79.0295981 165.976799,78.7271981 C166.027199,78.4751981 165.926399,78.2735981 165.976799,77.9711982 L166.178399,76.9127982 C166.228799,76.4087982 166.027199,75.0983983 165.271199,75.2495983 C164.918399,75.3503983 164.565599,75.8039983 164.363999,76.0559983 L163.456799,77.2655982 C162.398399,78.8279981 161.843999,80.541598 161.087999,82.1543979 C161.087999,82.1543979 161.087999,82.2047979 161.037599,82.3055979 Z M178.172951,80.037759 C178.173154,80.0376518 178.17337,80.037598 178.173598,80.037598 C178.173386,80.0377042 178.173174,80.0378107 178.172962,80.0379173 L178.172951,80.037759 Z M178.172951,80.037759 C178.128218,80.0613291 178.679653,82.6679857 179.131198,84.7751977 C178.778398,83.4143978 178.324798,81.8015979 178.123198,80.843998 C178.526398,83.0615979 179.030398,85.2287977 179.534398,87.3959976 C179.584798,87.3455976 179.635198,87.2447976 179.584798,86.9927976 C179.635198,87.1439976 179.685598,87.2447976 179.685598,87.2951976 C181.903198,86.1863977 183.969598,85.1279977 186.035998,83.8175978 C186.943198,83.2127978 187.900798,82.2047979 188.858398,81.7511979 C189.362398,81.5495979 189.765598,81.6503979 189.916798,82.3559979 L189.916798,82.4063979 C190.118398,84.0191978 187.598398,85.3295977 186.539998,86.0855977 C185.078398,87.1439976 183.616798,88.1519975 182.003998,89.0087975 C181.600798,89.2103975 180.995998,89.4119975 180.592798,89.7143975 C180.038398,90.1679974 180.139198,90.1175974 180.239998,90.9239974 C180.391198,91.8311973 180.491998,92.7383973 180.491998,93.6959972 C180.542398,95.1071971 180.391198,96.518397 179.887198,97.879197 C178.677598,101.003997 176.258398,103.019997 172.780799,102.919197 C169.706399,102.868797 166.430399,101.255997 167.085599,97.929597 C167.035199,98.030397 166.883999,98.8871969 166.833599,98.8367969 C166.480799,98.6351969 166.833599,97.526397 166.934399,97.274397 C167.539199,95.4095971 169.151999,93.9479972 170.663999,92.7887973 C171.520799,92.1335973 172.377599,91.4783973 173.234399,90.9239974 C173.889599,90.5207974 175.401598,89.9159974 175.502398,89.2103975 C175.653598,88.5047975 174.998399,86.9927976 174.796799,86.2367977 C174.595199,85.2791977 174.242399,84.2711978 174.141599,83.2631978 C174.091199,82.6079979 174.292799,82.2047979 174.141599,81.5999979 C173.889599,80.793598 173.637599,80.037598 173.587199,79.1807981 C173.536799,78.3239981 173.536799,77.4671982 173.839199,76.6607982 C174.242399,75.4511983 176.913598,72.6791985 178.274398,73.9391984 C178.274398,73.6871984 178.929598,74.6447984 178.979998,74.9471983 C178.979998,75.1487983 178.778398,77.0135982 178.475998,76.9631982 C178.475998,76.9631982 178.576798,76.5095982 178.627198,76.1567983 C178.375198,76.8623982 177.971998,77.5175982 177.921598,78.2735981 C177.820798,78.9287981 177.971998,79.6847981 178.072798,80.289598 C178.072798,80.1890104 178.072798,80.0884229 178.172962,80.0379173 L178.172951,80.037759 Z M169.555199,99.6935969 C170.260799,99.9455968 171.067199,99.7943969 171.772799,99.6431969 L173.183999,99.0887969 C173.234399,99.1391969 172.780799,99.4415969 172.780799,99.4919969 C173.385599,99.1391969 173.889599,98.6855969 174.343199,98.131197 L174.091199,98.3327969 C174.494399,97.929597 175.451998,95.9135971 175.502398,95.7119971 C175.855198,94.5023972 175.855198,93.2927972 175.804798,92.0831973 C175.703998,92.1839973 175.552798,92.2343973 175.451998,92.2847973 L175.804798,91.9823973 L175.199998,92.3351973 C175.502398,92.2343973 174.544799,92.9903973 174.393599,93.0911973 L172.881599,94.0991972 C171.873599,94.8047972 170.764799,95.5607971 170.008799,96.568797 C169.555199,97.223997 168.244799,99.2903969 169.555199,99.6935969 Z M175.905598,101.155197 C177.215998,100.550397 177.921598,99.6935969 178.475998,98.5847969 C177.014398,100.651197 174.443999,101.860797 171.974399,102.011997 C173.335199,101.961597 174.595199,101.709597 175.905598,101.155197 Z M179.471398,86.2115977 C179.420998,85.9721977 179.357998,85.7075977 179.282398,85.4303977 C179.332798,85.7075977 179.383198,85.9847977 179.433598,86.2304977 L179.471398,86.2115977 Z M179.471398,86.2115977 C179.521798,86.4509976 179.559598,86.6651976 179.584798,86.8415976 C179.534398,86.6903976 179.483998,86.4761976 179.433598,86.2304977 L179.471398,86.2115977 Z M180.195898,91.9760973 C180.202198,92.0201973 180.214798,92.0579973 180.239998,92.0831973 C180.239998,92.0579973 180.227398,92.0201973 180.214798,91.9760973 L180.195898,91.9760973 Z M207.202138,81.9019954 C207.202811,81.9019814 207.203431,81.902115 207.203997,81.9023979 C207.203315,81.9023979 207.202633,81.9024002 207.201951,81.9024049 L207.202138,81.9019954 Z M207.202138,81.9019954 C207.08288,81.9044818 205.287948,86.5414608 205.137597,86.9423976 C204.935997,87.6983976 204.028797,89.9159974 205.389597,89.4623975 C206.851197,89.0591975 208.262397,87.0431976 209.169596,85.9847977 C210.379196,84.6239978 211.387196,83.1623978 212.445596,81.6503979 C213.554396,79.987198 214.864796,77.2151982 217.435196,77.9207982 C219.703196,78.5759981 217.989596,80.995198 217.283996,82.4063979 C217.384796,82.3055979 217.485596,82.1543979 217.535996,82.2047979 C217.838396,82.5575979 216.830396,84.4727978 216.679196,84.9767977 C216.376796,85.9343977 215.973596,87.0431976 215.923196,88.1015976 C215.872796,89.3111975 216.225596,88.9583975 217.031996,88.3535975 C218.745596,86.9927976 220.156796,85.2791977 221.618396,83.7167978 C221.719196,83.6159978 224.037596,80.944798 224.188796,81.9023979 C224.239196,82.5071979 223.432796,83.6159978 223.130396,84.1199978 C222.424796,85.3295977 221.467196,86.4383976 220.509596,87.4967976 C219.047996,89.0591975 216.931196,91.6295973 214.562396,91.7807973 C213.453596,91.8815973 212.294396,91.3271974 211.689596,90.3191974 C210.631196,88.4039975 211.739996,85.9847977 212.395196,84.2207978 C211.084796,85.7831977 209.824796,87.3455976 208.564797,88.9583975 C208.211997,89.4119975 204.381597,93.2927972 203.877597,92.6375973 C203.877597,92.5871973 204.331197,92.3855973 204.280797,92.3351973 C203.776797,92.6375973 203.222397,92.8895973 202.667997,92.8895973 C202.718397,92.9399973 202.819197,92.9399973 202.919997,92.9399973 C203.020797,93.2927972 201.559197,92.7383973 201.407997,92.6375973 C200.853597,92.1335973 200.601597,91.3271974 200.450397,90.6215974 C200.198397,89.0087975 200.450397,87.3959976 200.853597,85.8335977 C201.256797,84.2207978 201.659997,82.6583979 202.365597,81.095998 C202.718397,80.289598 203.323197,79.886398 203.675997,79.1807981 C204.230397,77.9207982 204.935997,76.3079983 206.044797,75.4007983 C206.951997,74.5943984 208.564797,74.7455983 209.471996,75.4511983 C210.379196,76.1567983 209.875196,76.5095982 209.471996,77.2151982 C209.572796,77.0639982 209.673596,76.9631982 209.774396,76.9127982 C209.875196,76.9127982 208.665597,79.3823981 208.413597,79.3319981 C208.413597,79.3319981 208.564797,78.8279981 208.715997,78.5255981 C208.060797,79.6847981 207.455997,80.894398 206.901597,82.1039979 C207.001715,81.9538205 207.101833,81.9030842 207.201951,81.9024049 L207.202138,81.9019954 Z M216.153934,83.9813978 C216.146846,83.9939978 216.137396,84.0065978 216.124796,84.0191978 C216.136955,84.0070388 216.149114,83.9948798 216.160565,83.9827208 L216.153934,83.9813978 Z M204.53177,89.4071742 C204.436924,88.941509 205.14006,86.5323344 205.843197,84.5735978 C205.289415,85.9328801 204.232757,87.945902 204.53179,89.4071056 L204.53177,89.4071742 Z M212.477096,84.2459978 C212.508596,84.1703978 212.546396,84.0947978 212.596796,84.0191978 C212.521196,84.0695978 212.470796,84.1325978 212.439296,84.2081978 L212.477096,84.2459978 Z M241.375195,82.2047979 C241.576795,83.4143978 239.661595,85.1279977 239.056795,85.9343977 C237.947995,87.3455976 236.939995,88.8575975 235.730395,90.1679974 C234.823195,91.1255974 233.311195,92.7383973 231.899995,92.2847973 C231.597595,92.1839973 229.732795,91.1759974 229.783195,90.9239974 L229.934395,91.0247974 L229.631995,90.7223974 C229.883995,91.1255974 229.329595,90.6215974 229.279195,90.6215974 C229.027195,90.3695974 228.825595,89.9663974 228.674395,89.6639975 C228.422395,89.1095975 228.371995,88.5551975 228.371995,88.0007976 C228.371995,87.4463976 228.472795,86.8919976 228.523195,86.3375977 C228.623995,85.1783977 228.674395,84.1703978 229.027195,83.0615979 C229.127995,82.8095979 230.186395,79.987198 230.539195,80.087998 C230.639995,80.087998 230.387995,80.440798 230.438395,80.491198 L231.143995,79.0799981 C231.043195,79.1807981 230.992795,79.2815981 230.891995,79.3319981 C230.841595,79.2815981 231.496795,78.1223981 231.647995,77.8703982 C230.639995,79.0295981 229.833595,80.239198 228.926395,81.4487979 C228.271195,82.3055979 227.464795,82.8599979 227.011195,83.6663978 C225.952795,85.4807977 224.642396,87.1439976 223.785596,89.0087975 L223.583996,88.6055975 C222.676796,89.7143975 221.315996,88.4039975 220.811996,87.5471976 C220.358396,86.7407976 220.509596,86.1359977 220.610396,85.2287977 C220.711196,84.4223978 220.660796,83.6159978 220.912796,82.7591979 C221.215196,81.7007979 221.618396,80.692798 222.021596,79.6343981 C222.374396,78.5759981 222.727196,77.5175982 223.130396,76.4591982 C223.382396,75.8039983 223.886396,74.9975983 224.037596,74.2919984 C224.188796,73.7375984 224.037596,73.3847984 224.692796,72.9815985 C225.297596,72.6287985 225.952795,72.6791985 226.607995,72.7799985 C227.414395,72.9311985 228.875995,73.7879984 228.019195,75.0479983 C227.666395,75.5015983 227.061595,76.0055983 226.658395,76.5095982 C226.204795,77.0639982 226.255195,77.3159982 226.053595,77.9711982 C225.952795,78.3743981 225.549595,78.7271981 225.347996,79.1303981 C225.045596,79.6847981 224.843996,80.390398 224.642396,81.045598 C224.541596,81.4487979 224.591996,81.7511979 224.541596,82.1543979 C224.440796,83.2127978 224.087996,84.2711978 223.987196,85.3295977 C224.037596,85.1279977 224.390396,84.7751977 224.440796,84.8255977 C224.491196,84.8759977 223.936796,85.7327977 223.987196,85.7327977 L226.960795,81.3983979 C226.305595,82.2551979 225.801595,82.8599979 225.801595,82.8599979 C225.650395,82.7591979 231.647995,75.0983983 232.353595,74.4431984 C233.815195,73.0823984 235.679995,73.1327984 236.385595,75.5015983 C237.191995,78.0215982 234.571195,79.6847981 233.361595,81.4991979 C232.706395,82.5071979 232.151995,83.7167978 231.647995,84.7751977 C231.295195,85.4303977 230.539195,86.8919976 230.438395,88.0007976 C230.539195,87.2447976 231.093595,86.3375977 231.295195,85.8335977 C231.698395,84.7751977 232.252795,83.9183978 233.059195,83.1623978 C232.706395,83.8175978 232.303195,84.4223978 232.000795,85.0271977 L232.252795,84.7247978 C232.353595,84.7247978 231.799195,86.4383976 231.748795,86.5391976 C231.547195,87.1439976 231.345595,87.7991976 231.295195,88.4543975 C231.244795,88.5047975 231.295195,89.3111975 231.295195,89.3111975 L231.345595,89.3615975 C231.345595,89.3111975 231.698395,89.2607975 231.799195,89.2103975 C232.555195,88.9583975 233.311195,88.2527975 233.915995,87.7487976 C235.125595,86.7911976 236.284795,85.7327977 237.443995,84.7247978 C238.300795,83.9183978 239.409595,83.1119978 240.115195,82.2551979 C240.417595,81.8015979 241.123195,80.995198 241.375195,82.2047979 Z M81.8075037,110.302907 C81.8079775,110.302904 81.8084111,110.303 81.8088041,110.303196 C81.8083881,110.303058 81.8079546,110.302961 81.8075037,110.302907 Z M81.8075037,110.302907 C81.6864291,110.303792 78.9350218,116.807154 78.6840043,117.409596 C77.7264043,119.727996 76.8696044,122.096796 76.2144044,124.515995 C77.3736043,122.197596 78.5832043,119.979996 80.0448042,117.812796 C81.3552041,115.897596 82.917604,114.234396 84.3288039,112.419996 C84.3288039,112.419996 84.7824039,111.462396 85.0344039,111.411996 C85.0344039,111.411996 84.4800039,112.218396 84.5304039,112.167996 L85.2360039,111.260796 C85.1856039,111.260796 85.1856039,111.260796 85.1352039,111.210396 C85.2360039,110.504796 86.3952038,109.496796 86.8488038,108.992796 C87.5040037,108.236796 88.2096037,107.531196 88.9152036,106.875996 C90.0240036,105.767196 91.5864035,103.851997 93.1488034,103.398397 C95.7696032,102.642397 97.9872031,105.515197 98.1888031,107.934396 C98.1384031,107.783196 98.1888031,108.236796 98.1888031,108.135996 C98.1888031,108.438396 98.2392031,109.093596 98.1384031,109.143996 C98.1888031,109.093596 98.0880031,108.791196 98.0376031,108.589596 C98.0880031,109.496796 97.9872031,110.303196 97.8360031,111.159996 C97.9368031,110.907996 98.0880031,110.555196 98.0880031,110.555196 C98.1888031,111.008796 97.8360031,111.663996 97.7352031,112.117596 C97.3824031,113.327196 96.9792032,114.536796 96.4752032,115.645596 C95.5680032,117.863196 94.2576033,119.727996 92.7456034,121.542396 C91.2336035,123.407195 89.6712036,125.070395 87.7560037,126.531995 C87.0504038,127.086395 86.3448038,127.287995 85.6392038,127.691195 C84.9840039,128.043995 84.4800039,128.648795 83.7744039,129.051995 C81.9600041,130.160795 79.6920042,131.571995 77.5752043,131.924795 C77.2224043,131.975195 76.8192044,131.975195 76.5168044,131.924795 C76.2144044,131.924795 75.8616044,131.874395 75.5592044,131.823995 C75.1560045,131.571995 74.9040045,131.723195 74.8536045,132.227195 C74.0472045,133.134395 73.6440046,135.049595 73.2408046,136.208795 C72.2328046,138.879995 71.2248047,141.752794 70.8720047,144.575194 C70.8216047,144.524794 70.7712047,144.474394 70.7712047,144.373594 C69.8640048,145.331194 67.1424049,145.835194 66.688805,144.171994 C66.638405,144.071194 66.638405,143.970394 66.638405,143.919994 C66.588005,143.970394 66.588005,144.020794 66.588005,144.121594 C65.832005,143.163994 66.638405,140.996794 66.840005,140.039194 L67.8984049,134.898395 C68.2512049,133.386395 68.6544048,131.823995 69.3096048,130.412795 C69.5112048,129.908795 69.8136048,129.455195 70.0152048,128.951195 C70.0656048,128.900795 70.3176047,127.539995 70.4184047,127.489595 C70.4688047,127.539995 70.4688047,127.640795 70.4688047,127.691195 C70.5192047,127.539995 70.5696047,127.439195 70.5696047,127.287995 C70.3680047,127.741595 70.6200047,126.481595 70.6200047,126.431195 C70.8216047,125.826395 71.0736047,125.221595 71.3256047,124.616795 C71.7288047,123.659195 71.9808047,122.802395 72.1824046,121.844796 C72.2832046,121.441596 73.7952045,117.258396 74.2992045,117.359196 C74.3496045,117.359196 74.1480045,117.711996 74.1984045,117.762396 C74.4000045,117.308796 74.6016045,116.855196 74.7528045,116.401596 C74.7024045,116.502396 74.6520045,116.603196 74.5512045,116.653596 C74.4504045,116.603196 77.2224043,110.605596 77.4744043,110.000796 C77.9280043,108.891996 78.3816043,107.682396 79.0368042,106.674396 C79.3392042,106.271196 79.6920042,106.119996 79.8936042,105.817596 C80.0448042,105.615997 80.0952042,105.212797 80.2464042,104.960797 C80.4984041,104.456797 81.0528041,103.247197 81.7080041,102.995197 C82.766404,102.541597 83.522404,103.952797 83.8248039,104.759197 C84.1272039,105.565597 83.9760039,105.867996 83.673604,106.422396 L83.8248039,106.321596 C83.9760039,106.371996 82.968004,108.337596 82.766404,108.287196 C82.716004,108.287196 82.816804,108.035196 82.917604,107.833596 C81.4560041,110.504796 80.1960042,113.276796 79.0368042,116.099196 C79.1875883,115.797628 81.6440339,110.28326 81.8075037,110.302907 Z M79.692943,122.498721 C79.7468759,122.425893 79.82024,122.399196 79.8936042,122.399196 C79.8936042,122.399196 78.2808043,125.473595 78.0792043,125.775995 C77.3736043,127.086395 76.7184044,128.396795 76.0632044,129.707195 C76.2648044,129.606395 78.2808043,128.699195 78.3816043,128.799995 C78.3816043,128.850395 77.3736043,129.354395 76.9704044,129.606395 C82.060804,127.489595 86.2944038,123.507995 89.3688036,118.921596 C88.3608037,120.383196 87.2016037,121.743996 85.9920038,123.054395 C85.2360039,123.810395 84.4296039,124.616795 83.623204,125.322395 C83.220004,125.624795 82.312804,126.128795 81.9096041,126.531995 C82.363204,125.977595 83.320804,125.473595 83.7744039,125.019995 C84.3792039,124.515995 84.9840039,123.961595 85.5384038,123.407195 C86.7480038,122.096796 87.9072037,120.735996 88.9152036,119.274396 C90.8808035,116.502396 92.8464034,113.075196 93.0984034,109.597596 C93.0480034,109.698396 93.0480034,109.748796 93.0984034,109.547196 L93.0984034,109.496796 C93.3504034,104.658397 88.3608037,111.159996 87.5040037,112.167996 C84.8104891,115.41019 81.9195138,118.948574 79.7104814,122.490015 L79.692943,122.498721 Z M68.3016049,135.603995 C68.0496049,136.511195 67.8480049,137.771195 67.6464049,138.779195 C68.5032049,135.906395 69.6120048,132.932795 70.5192047,130.009595 C69.8640048,131.975195 68.8056048,133.436795 68.3016049,135.603995 Z M67.2936049,142.055194 C67.3944049,141.500794 67.2432049,140.895994 67.3440049,140.341594 C67.1424049,141.147994 66.9912049,141.903994 66.840005,142.760794 C66.890405,142.508794 67.2432049,142.256794 67.2936049,142.055194 Z M78.3816043,117.762396 L78.3312043,117.812796 L77.3232043,120.383196 L78.3816043,117.762396 Z M78.3879043,117.655296 C78.3816043,117.674196 78.3816043,117.686796 78.3816043,117.711996 C78.3816043,117.686796 78.3942043,117.674196 78.4068043,117.655296 L78.3879043,117.655296 Z M78.5328043,117.359196 L78.5328043,117.308796 L78.4824043,117.409596 L78.5328043,117.359196 Z M79.2132042,123.274895 C79.2258042,123.255995 79.2384042,123.230795 79.2384042,123.205595 C79.2384042,123.230795 79.2258042,123.243395 79.2132042,123.255995 L79.2132042,123.274895 Z M112.401602,129.152795 C112.552802,129.858395 112.048802,130.715195 111.746402,131.319995 C111.343202,132.176795 110.839202,132.983195 110.284802,133.789595 C109.125602,135.503195 107.865603,137.216795 106.656003,138.930395 C105.446403,140.593594 104.136003,142.256794 102.523203,143.617594 C102.220803,143.819194 99.902403,145.683994 99.751203,145.633594 C99.751203,145.583194 99.801603,145.532794 99.852003,145.482394 L99.499203,145.633594 C99.751203,145.583194 98.7936031,146.238394 98.5416031,146.339194 C97.8360031,146.490394 97.0800032,146.288794 96.4752032,145.885594 C95.8200032,145.482394 95.4672033,144.877594 95.1648033,144.171994 C94.6608033,143.063194 94.6104033,142.004794 94.8120033,140.795194 C94.8624033,140.543194 95.5680032,137.619995 95.9208032,137.670395 C96.0216032,137.670395 95.8200032,138.073595 95.8704032,138.123995 L96.2232032,136.863995 C96.0720032,136.813595 98.7432031,131.168795 98.995203,130.815995 C97.4832031,131.118395 95.5680032,131.067995 94.5096033,129.757595 C94.2072033,129.354395 94.3080033,129.001595 94.2072033,128.699195 C94.0560033,128.295995 93.8544033,128.094395 93.7536034,127.741595 C93.2496034,125.271995 96.1224032,121.844796 98.5416031,123.507995 L98.4408031,123.356795 C98.4912031,123.054395 99.096003,123.810395 99.146403,124.062395 C99.146403,124.263995 98.7432031,125.675195 98.4912031,125.574395 C98.4408031,125.574395 98.7936031,124.667195 98.7936031,124.616795 C98.4408031,125.574395 97.3824031,126.632795 97.2816031,127.640795 C97.1808031,128.396795 97.5840031,128.396795 98.2392031,128.547995 C99.196803,128.799995 100.708803,128.648795 101.918403,129.001595 C101.112003,128.749595 100.154403,128.699195 99.499203,128.598395 C99.499203,128.598395 99.448803,128.598395 99.448803,128.547995 C100.204803,128.648795 101.011203,128.648795 101.666403,128.799995 C103.128003,129.152795 104.035203,129.707195 103.430403,131.269595 C102.825603,132.731195 102.069603,134.192795 101.414403,135.654395 C100.809603,137.065595 100.305603,138.577595 99.751203,140.039194 C99.600003,140.543194 98.4912031,142.659994 98.894403,143.163994 C99.398403,143.768794 102.170403,141.248794 102.926403,140.442394 C102.775203,140.593594 102.624003,140.593594 102.523203,140.694394 C102.422403,140.694394 103.531203,139.283194 103.682403,139.081595 L105.144003,137.216795 L107.865603,133.638395 L110.637602,129.908795 C110.889602,129.606395 112.099202,127.842395 112.401602,129.152795 Z M97.3320031,135.200795 C96.7272032,136.611995 96.1224032,138.073595 95.7696032,139.585594 C96.1224032,138.275195 96.6768032,137.015195 97.1808031,135.805595 L98.1384031,133.587995 C98.3904031,133.134395 99.448803,130.664795 99.700803,130.513595 C99.348003,130.614395 98.6424031,132.428795 98.5416031,132.579995 C98.0880031,133.436795 97.6848031,134.293595 97.3320031,135.200795 Z M96.2469611,145.203446 C96.2389744,145.195663 96.2310548,145.187846 96.2232032,145.179994 C96.2389726,145.179994 96.249808,145.184928 96.2572531,145.193252 L96.2469611,145.203446 Z M96.2469611,145.203446 C96.5465748,145.495412 96.9405806,145.73832 97.3824031,145.885594 C96.8280032,145.683994 96.4248032,145.280794 96.1224032,144.877594 L96.1224032,144.927994 C96.0720032,144.877594 96.0216032,144.827194 96.0216032,144.776794 L96.0720032,144.827194 C95.8582027,144.356833 95.6444022,143.886472 95.5229388,143.570006 L95.4168033,143.012794 L95.4168033,142.962394 C95.3664033,142.861594 95.3664033,142.811194 95.3664033,142.811194 C95.3664033,142.811194 95.3664033,142.861594 95.4168033,142.911994 L95.4168033,142.659994 C95.3664033,141.954394 95.4168033,141.299194 95.5176032,140.643994 L95.5176032,140.593594 C95.4168033,141.047194 95.3664033,141.450394 95.3664033,141.954394 C95.3160033,142.559194 95.3664033,143.264794 95.5176032,143.869594 C95.5680032,144.020794 95.9712032,144.877594 96.2736032,145.280794 C96.2736032,145.246164 96.2736032,145.211533 96.2572531,145.193252 L96.2469611,145.203446 Z M95.5229388,143.570006 L95.6184032,144.071194 L95.4672033,143.415994 C95.482483,143.461834 95.5012371,143.513463 95.5229388,143.570006 Z M97.5336031,128.245595 C97.4328031,128.195195 97.3320031,127.943195 97.3320031,127.842395 C97.3824031,127.943195 97.6848031,128.195195 97.6848031,128.195195 C97.9368031,128.396795 98.2896031,128.497595 98.6928031,128.547995 C98.2392031,128.497595 97.7856031,128.447195 97.5336031,128.245595 Z M102.825603,132.176795 L102.825603,132.126395 L101.767203,134.394395 L102.825603,132.176795 Z M95.5676156,140.449798 C95.562943,140.492928 95.5176032,140.495391 95.5176032,140.543194 L95.5176032,140.593594 C95.5176032,140.545547 95.5634071,140.4975 95.5676839,140.449453 L95.5676156,140.449798 Z M102.876003,132.025595 L102.825603,132.075995 L102.876003,132.075995 L102.876003,132.025595 Z M102.876003,132.025595 L102.825603,132.075995 L102.876003,132.075995 L102.876003,132.025595 Z M95.6436032,139.705294 C95.6562032,139.673794 95.6688032,139.635994 95.6688032,139.585594 C95.6688032,139.635994 95.6562032,139.673794 95.6436032,139.705294 Z M95.6436032,139.705294 C95.6310032,139.736794 95.6184032,139.761994 95.6184032,139.787194 C95.6184032,139.761994 95.6310032,139.736794 95.6436032,139.705294 Z M95.8452032,144.455494 C95.8578032,144.474394 95.8704032,144.499594 95.8704032,144.524794 C95.8704032,144.499594 95.8578032,144.486994 95.8452032,144.474394 L95.8452032,144.455494 Z M95.8452032,144.455494 C95.8326032,144.436594 95.8200032,144.423994 95.8200032,144.423994 C95.8200032,144.449194 95.8326032,144.461794 95.8452032,144.474394 L95.8452032,144.455494 Z M97.3824031,127.741595 C97.3320031,127.741595 97.3320031,127.791995 97.3320031,127.791995 L97.3824031,127.741595 Z M131.906401,128.850395 C133.368001,130.715195 127.471201,131.118395 126.916801,131.219195 C126.816001,131.219195 126.160801,131.420795 126.211201,131.370395 C125.707201,131.571995 125.808001,131.521595 125.455201,131.975195 C125.052001,132.579995 124.699202,133.235195 124.346402,133.839995 C124.144802,134.041595 122.330402,136.712795 121.977602,136.561595 C121.977602,136.561595 122.380802,136.057595 122.330402,136.007195 L120.868802,137.720795 C121.020002,137.569595 121.120802,137.519195 121.120802,137.569595 C120.818402,138.426395 119.155202,139.434394 118.399202,139.988794 C117.592802,140.593594 116.584802,141.147994 115.526402,141.299194 C114.518402,141.399994 113.409602,141.198394 112.452002,140.744794 C109.478402,139.283194 107.714403,135.251195 109.327202,132.176795 C110.184002,130.563995 110.788802,128.749595 111.998402,127.136795 C112.704002,126.279995 113.460002,125.423195 114.417602,124.818395 C114.820802,124.515995 115.274402,124.263995 115.778402,124.062395 C116.131202,123.860795 116.887202,123.810395 117.139202,123.608795 C117.441602,123.407195 117.744002,122.096796 117.945602,121.693596 C118.147202,121.290396 118.399202,120.887196 118.651202,120.534396 C119.356802,119.526396 120.213602,118.518396 121.272002,117.913596 C122.985602,116.955996 124.699202,117.913596 125.959201,119.173596 C125.959201,119.173596 126.816001,119.727996 126.765601,120.030396 L126.564001,119.828796 L126.765601,120.231996 L126.816001,120.282396 C126.664801,119.879196 127.269601,120.635196 127.269601,120.635196 C127.521601,121.038396 127.672801,121.491996 127.773601,121.945596 C127.924801,122.651195 127.874401,123.407195 127.773601,124.112795 C127.572001,125.977595 127.017601,127.892795 126.463201,129.707195 C127.975201,129.455195 129.487201,129.102395 130.948801,128.799995 C131.301601,128.699195 131.654401,128.447195 131.906401,128.799995 C131.956801,128.900795 131.906401,128.850395 131.906401,128.850395 Z M114.468002,139.031195 C117.996002,138.375995 120.717602,134.293595 122.179202,131.370395 C119.961602,131.067995 117.240002,130.110395 116.685602,127.590395 C116.332802,127.993595 115.627202,129.203195 114.871202,130.715195 L115.173602,130.261595 C115.072802,130.765595 110.234402,139.635994 114.417602,139.031195 L114.468002,139.031195 Z M124.396802,125.070395 C124.648802,123.810395 125.354401,121.340796 124.598402,120.030396 C123.590402,118.467996 121.725602,120.735996 120.969602,121.743996 C120.919202,121.743996 120.919202,121.794396 120.919202,121.794396 L120.868802,121.895196 L120.868802,121.844796 C120.818402,121.945596 120.768002,121.995996 120.818402,121.995996 C120.566402,122.348796 120.264002,122.651195 119.961602,123.205595 C120.012002,123.155195 120.566402,122.247996 120.616802,122.399196 C120.768002,122.701595 119.810402,124.314395 119.659202,124.616795 C119.356802,125.423195 119.104802,126.229595 119.004002,127.086395 C118.903202,127.943195 118.802402,128.900795 119.508002,129.505595 C119.911202,129.858395 120.566402,129.959195 121.120802,130.009595 C121.423202,130.059995 122.078402,130.160795 122.380802,130.059995 C122.884802,129.959195 122.733602,130.110395 122.985602,129.606395 C123.741602,128.346395 124.044002,126.481595 124.396802,125.070395 Z M120.919202,121.794396 L120.969602,121.743996 C120.969602,121.794396 120.919202,121.794396 120.919202,121.794396 Z M148.8912,115.191996 L148.8912,115.242396 C148.9416,115.947996 148.0848,116.502396 147.48,116.653596 C146.8248,116.855196 146.0688,116.451996 145.464,116.552796 C145.1112,116.653596 145.212,116.804796 144.9096,116.905596 C144.456,117.056796 143.9016,117.006396 143.448,117.006396 C142.7928,117.006396 141.381601,116.653596 140.827201,117.006396 C140.726401,117.056796 140.625601,117.157596 140.524801,117.308796 L140.676001,117.006396 C140.373601,117.056796 139.869601,118.417596 139.516801,119.324796 L140.071201,118.215996 L139.365601,120.131196 C138.861601,121.189596 138.408001,122.298396 137.954401,123.356795 C137.047201,125.473595 136.240801,127.539995 135.434401,129.707195 C134.073601,133.638395 132.712801,137.771195 131.805601,141.853594 C131.654401,142.559194 130.797601,145.482394 131.755201,145.885594 C131.906401,145.986394 132.964801,145.381594 132.914401,145.431994 C133.166401,145.179994 133.468801,144.927994 133.720801,144.625594 C133.519201,144.776794 132.964801,145.230394 132.964801,145.129594 C132.914401,144.827194 134.174401,143.819194 134.376001,143.567194 C134.880001,143.063194 135.333601,142.508794 135.787201,142.004794 L138.710401,138.426395 C140.524801,136.158395 142.2384,133.839995 144.0528,131.571995 C144.456,131.067995 145.3632,129.303995 146.0184,129.152795 C146.8248,129.001595 146.976,129.807995 146.724,130.463195 C146.2704,131.823995 144.9096,132.932795 144.204,134.142395 C142.944,136.259195 141.432001,138.224795 139.970401,140.240794 C138.357601,142.407994 136.744801,144.575194 134.980801,146.641594 C134.174401,147.649594 133.116001,149.060794 131.856001,149.665594 C130.898401,150.119194 129.638401,149.564794 128.832001,148.959994 C127.924801,148.355194 127.420801,147.447994 127.219201,146.439994 C127.168801,146.137594 126.866401,144.524794 127.168801,144.171994 L127.168801,144.927994 L127.269601,143.919994 C127.168801,144.121594 127.168801,143.466394 127.168801,143.365594 C127.168801,142.962394 127.269601,142.508794 127.370401,142.105594 C127.471201,141.299194 127.672801,140.543194 127.874401,139.736794 C128.227201,138.174395 128.630401,136.611995 128.932801,134.999195 C129.184801,133.386395 129.739201,131.874395 130.243201,130.362395 C130.344001,130.110395 131.352001,127.035995 131.604001,127.035995 C131.654401,127.035995 131.503201,127.640795 131.503201,127.691195 C131.704801,126.935195 132.007201,126.179195 132.259201,125.423195 C132.158401,125.675195 132.007201,125.927195 132.007201,125.826395 C132.007201,125.221595 132.662401,124.163195 132.864001,123.608795 L133.468801,121.844796 C134.023201,120.231996 134.577601,118.619196 135.283201,117.107196 C133.872001,117.207996 132.511201,117.107196 131.200801,117.359196 C129.285601,117.711996 126.866401,117.510396 124.951201,117.258396 C124.699202,117.207996 123.489602,117.157596 123.792002,116.603196 C123.892802,116.451996 125.001601,116.199996 125.203201,116.149596 C126.160801,115.796796 127.168801,115.796796 128.176801,115.746396 C130.142401,115.544796 132.057601,115.645596 134.023201,115.393596 C134.527201,115.343196 135.384001,115.494396 135.837601,115.292796 C136.291201,115.141596 136.291201,114.788796 136.492801,114.335196 C136.845601,113.427996 137.248801,112.520796 137.652001,111.663996 C138.105601,110.706396 138.508801,109.698396 139.113601,108.841596 C139.516801,108.287196 139.920001,108.135996 140.222401,107.531196 C140.827201,106.170396 141.532801,104.809597 142.4904,103.650397 C143.4984,102.339997 145.2624,102.138397 146.8248,102.440797 C147.5808,102.591997 148.6392,103.045597 148.2864,104.053597 C148.1352,104.456797 147.6312,104.708797 147.3288,105.011197 C147.3288,105.061597 147.7824,104.557597 147.7824,104.759197 C147.732,105.111997 145.8672,107.682396 145.716,107.631996 C145.6656,107.631996 146.4216,106.371996 146.472,106.271196 C144.5568,109.093596 142.944,112.167996 141.432001,115.242396 C141.583201,115.242396 141.7344,115.040796 141.936,114.687996 C141.7848,114.990396 141.684,115.191996 141.684,115.242396 C143.6496,115.141596 145.6656,115.141596 147.6816,115.040796 C148.0848,115.040796 148.8408,114.486396 148.8912,115.191996 Z M139.315201,118.115196 C141.331201,113.831196 143.1456,109.395996 145.8672,105.515197 C141.8352,111.210396 139.315201,117.963996 136.492801,124.263995 C134.829601,127.943195 133.418401,131.773595 132.309601,135.654395 C131.805601,137.418395 131.402401,139.182395 131.049601,140.996794 L131.301601,140.039194 C131.856001,137.670395 132.662401,135.301595 133.519201,133.033595 C135.333601,128.043995 137.047201,122.903195 139.315201,118.115196 Z M142.6416,113.125596 L143.8512,110.807196 C143.5992,110.857596 143.1456,111.966396 142.6416,113.125596 Z M137.486781,123.940783 C137.490956,123.931418 137.495611,123.921574 137.500801,123.911195 C137.49658,123.920575 137.492367,123.929955 137.488164,123.939335 L137.486781,123.940783 Z M141.9864,114.587196 C142.1376,114.284796 142.3392,113.881596 142.4904,113.478396 L141.9864,114.587196 Z M130.999201,146.339194 L130.848001,146.238394 C130.898401,146.288794 130.948801,146.339194 130.999201,146.339194 Z M167.085599,128.850395 C168.547199,130.715195 162.650399,131.118395 162.095999,131.219195 C161.995199,131.219195 161.339999,131.420795 161.390399,131.370395 C160.886399,131.571995 160.987199,131.521595 160.634399,131.975195 C160.231199,132.579995 159.878399,133.235195 159.525599,133.839995 C159.323999,134.041595 157.5096,136.712795 157.1568,136.561595 C157.1568,136.561595 157.56,136.057595 157.5096,136.007195 L156.048,137.720795 C156.1992,137.569595 156.3,137.519195 156.3,137.569595 C155.9976,138.426395 154.3344,139.434394 153.5784,139.988794 C152.772,140.593594 151.764,141.147994 150.7056,141.299194 C149.6976,141.399994 148.5888,141.198394 147.6312,140.744794 C144.6576,139.283194 142.8936,135.251195 144.5064,132.176795 C145.3632,130.563995 145.968,128.749595 147.1776,127.136795 C147.8832,126.279995 148.6392,125.423195 149.5968,124.818395 C150,124.515995 150.4536,124.263995 150.9576,124.062395 C151.3104,123.860795 152.0664,123.810395 152.3184,123.608795 C152.6208,123.407195 152.9232,122.096796 153.1248,121.693596 C153.3264,121.290396 153.5784,120.887196 153.8304,120.534396 C154.536,119.526396 155.3928,118.518396 156.4512,117.913596 C158.1648,116.955996 159.878399,117.913596 161.138399,119.173596 C161.138399,119.173596 161.995199,119.727996 161.944799,120.030396 L161.743199,119.828796 L161.944799,120.231996 L161.995199,120.282396 C161.843999,119.879196 162.448799,120.635196 162.448799,120.635196 C162.700799,121.038396 162.851999,121.491996 162.952799,121.945596 C163.103999,122.651195 163.053599,123.407195 162.952799,124.112795 C162.751199,125.977595 162.196799,127.892795 161.642399,129.707195 C163.154399,129.455195 164.666399,129.102395 166.127999,128.799995 C166.480799,128.699195 166.833599,128.447195 167.085599,128.799995 C167.135945,128.900688 167.085706,128.850502 167.085599,128.850395 L167.085599,128.850395 Z M167.085599,128.850395 C167.085599,128.850395 167.085599,128.850395 167.085599,128.850395 Z M149.6472,139.031195 C153.1752,138.375995 155.8968,134.293595 157.3584,131.370395 C155.1408,131.067995 152.4192,130.110395 151.8648,127.590395 C151.512,127.993595 150.8064,129.203195 150.0504,130.715195 L150.3528,130.261595 C150.252,130.765595 145.4136,139.635994 149.5968,139.031195 L149.6472,139.031195 Z M159.575999,125.070395 C159.827999,123.810395 160.533599,121.340796 159.777599,120.030396 C158.769599,118.467996 156.9048,120.735996 156.1488,121.743996 C156.0984,121.743996 156.0984,121.794396 156.0984,121.794396 L156.048,121.895196 L156.048,121.844796 C155.9976,121.945596 155.9472,121.995996 155.9976,121.995996 C155.7456,122.348796 155.4432,122.651195 155.1408,123.205595 C155.1912,123.155195 155.7456,122.247996 155.796,122.399196 C155.9472,122.701595 154.9896,124.314395 154.8384,124.616795 C154.536,125.423195 154.284,126.229595 154.1832,127.086395 C154.0824,127.943195 153.9816,128.900795 154.6872,129.505595 C155.0904,129.858395 155.7456,129.959195 156.3,130.009595 C156.6024,130.059995 157.2576,130.160795 157.56,130.059995 C158.064,129.959195 157.9128,130.110395 158.1648,129.606395 C158.920799,128.346395 159.223199,126.481595 159.575999,125.070395 Z M156.0984,121.794396 L156.1488,121.743996 C156.1488,121.794396 156.0984,121.794396 156.0984,121.794396 Z M184.070398,115.191996 L184.070398,115.242396 C184.120798,115.947996 183.263998,116.502396 182.659198,116.653596 C182.003998,116.855196 181.247998,116.451996 180.643198,116.552796 C180.290398,116.653596 180.391198,116.804796 180.088798,116.905596 C179.635198,117.056796 179.080798,117.006396 178.627198,117.006396 C177.971998,117.006396 176.560798,116.653596 176.006398,117.006396 C175.905598,117.056796 175.804798,117.157596 175.703998,117.308796 L175.855198,117.006396 C175.552798,117.056796 175.048799,118.417596 174.695999,119.324796 L175.250398,118.215996 L174.544799,120.131196 C174.040799,121.189596 173.587199,122.298396 173.133599,123.356795 C172.226399,125.473595 171.419999,127.539995 170.613599,129.707195 C169.252799,133.638395 167.891999,137.771195 166.984799,141.853594 C166.833599,142.559194 165.976799,145.482394 166.934399,145.885594 C167.085599,145.986394 168.143999,145.381594 168.093599,145.431994 C168.345599,145.179994 168.647999,144.927994 168.899999,144.625594 C168.698399,144.776794 168.143999,145.230394 168.143999,145.129594 C168.093599,144.827194 169.353599,143.819194 169.555199,143.567194 C170.059199,143.063194 170.512799,142.508794 170.966399,142.004794 L173.889599,138.426395 C175.703998,136.158395 177.417598,133.839995 179.231998,131.571995 C179.635198,131.067995 180.542398,129.303995 181.197598,129.152795 C182.003998,129.001595 182.155198,129.807995 181.903198,130.463195 C181.449598,131.823995 180.088798,132.932795 179.383198,134.142395 C178.123198,136.259195 176.611198,138.224795 175.149599,140.240794 C173.536799,142.407994 171.923999,144.575194 170.159999,146.641594 C169.353599,147.649594 168.295199,149.060794 167.035199,149.665594 C166.077599,150.119194 164.817599,149.564794 164.011199,148.959994 C163.103999,148.355194 162.599999,147.447994 162.398399,146.439994 C162.347999,146.137594 162.045599,144.524794 162.347999,144.171994 L162.347999,144.927994 L162.448799,143.919994 C162.347999,144.121594 162.347999,143.466394 162.347999,143.365594 C162.347999,142.962394 162.448799,142.508794 162.549599,142.105594 C162.650399,141.299194 162.851999,140.543194 163.053599,139.736794 C163.406399,138.174395 163.809599,136.611995 164.111999,134.999195 C164.363999,133.386395 164.918399,131.874395 165.422399,130.362395 C165.523199,130.110395 166.531199,127.035995 166.783199,127.035995 C166.833599,127.035995 166.682399,127.640795 166.682399,127.691195 C166.883999,126.935195 167.186399,126.179195 167.438399,125.423195 C167.337599,125.675195 167.186399,125.927195 167.186399,125.826395 C167.186399,125.221595 167.841599,124.163195 168.043199,123.608795 L168.647999,121.844796 C169.202399,120.231996 169.756799,118.619196 170.462399,117.107196 C169.051199,117.207996 167.690399,117.107196 166.379999,117.359196 C164.464799,117.711996 162.045599,117.510396 160.130399,117.258396 C159.878399,117.207996 158.668799,117.157596 158.971199,116.603196 C159.071999,116.451996 160.180799,116.199996 160.382399,116.149596 C161.339999,115.796796 162.347999,115.796796 163.355999,115.746396 C165.321599,115.544796 167.236799,115.645596 169.202399,115.393596 C169.706399,115.343196 170.563199,115.494396 171.016799,115.292796 C171.470399,115.141596 171.470399,114.788796 171.671999,114.335196 C172.024799,113.427996 172.427999,112.520796 172.831199,111.663996 C173.284799,110.706396 173.687999,109.698396 174.292799,108.841596 C174.695999,108.287196 175.099199,108.135996 175.401598,107.531196 C176.006398,106.170396 176.711998,104.809597 177.669598,103.650397 C178.677598,102.339997 180.441598,102.138397 182.003998,102.440797 C182.759998,102.591997 183.818398,103.045597 183.465598,104.053597 C183.314398,104.456797 182.810398,104.708797 182.507998,105.011197 C182.507998,105.061597 182.961598,104.557597 182.961598,104.759197 C182.911198,105.111997 181.046398,107.682396 180.895198,107.631996 C180.844798,107.631996 181.600798,106.371996 181.651198,106.271196 C179.735998,109.093596 178.123198,112.167996 176.611198,115.242396 C176.762398,115.242396 176.913598,115.040796 177.115198,114.687996 C176.963998,114.990396 176.863198,115.191996 176.863198,115.242396 C178.828798,115.141596 180.844798,115.141596 182.860798,115.040796 C183.263998,115.040796 184.019998,114.486396 184.070398,115.191996 Z M174.494399,118.115196 C176.510398,113.831196 178.324798,109.395996 181.046398,105.515197 C177.014398,111.210396 174.494399,117.963996 171.671999,124.263995 C170.008799,127.943195 168.597599,131.773595 167.488799,135.654395 C166.984799,137.418395 166.581599,139.182395 166.228799,140.996794 L166.480799,140.039194 C167.035199,137.670395 167.841599,135.301595 168.698399,133.033595 C170.512799,128.043995 172.226399,122.903195 174.494399,118.115196 Z M177.820798,113.125596 L179.030398,110.807196 C178.778398,110.857596 178.324798,111.966396 177.820798,113.125596 Z M172.665979,123.940783 C172.670154,123.931418 172.674809,123.921574 172.679999,123.911195 C172.675778,123.920575 172.671565,123.929955 172.667362,123.939335 L172.665979,123.940783 Z M177.165598,114.587196 C177.316798,114.284796 177.518398,113.881596 177.669598,113.478396 L177.165598,114.587196 Z M166.178399,146.339194 L166.027199,146.238394 C166.077599,146.288794 166.127999,146.339194 166.178399,146.339194 Z M192.285597,129.001595 C192.487197,129.959195 191.579998,131.067995 191.075998,131.723195 C190.219198,132.983195 189.412798,134.192795 188.455198,135.402395 C187.447198,136.763195 186.187198,138.930395 184.423198,139.333594 C184.019998,139.383994 182.104798,138.879995 182.155198,138.577595 L182.255998,138.577595 C181.852798,138.375995 182.255998,138.829595 181.651198,138.375995 C181.197598,138.073595 180.895198,137.619995 180.592798,137.166395 C180.038398,136.410395 179.332798,135.755195 179.131198,134.847995 C179.080798,134.595995 178.979998,132.781595 179.383198,132.781595 C179.483998,132.781595 179.383198,133.033595 179.433598,133.033595 L179.584798,132.126395 C179.534398,132.227195 179.534398,132.277595 179.433598,132.327995 C179.231998,132.277595 180.189598,128.699195 180.290398,128.396795 C180.693598,127.338395 180.895198,126.128795 181.903198,125.523995 C182.659198,125.019995 183.616798,125.120795 184.574398,125.523995 C184.977598,125.675195 186.136798,126.179195 186.136798,126.683195 C186.136798,126.985595 185.884798,127.035995 185.733598,127.187195 C185.783998,127.136795 185.884798,127.136795 185.935198,127.136795 C186.086398,127.237595 185.330398,128.295995 185.229598,128.245595 C185.128798,128.245595 185.279998,127.993595 185.330398,127.842395 C184.372798,129.404795 183.566398,131.168795 182.961598,132.932795 C183.213598,132.277595 184.473598,129.455195 184.624798,129.505595 C184.775998,129.555995 181.298398,135.603995 183.011998,136.460795 C183.818398,136.863995 185.179198,135.603995 185.733598,135.150395 C186.691198,134.394395 188.001598,133.436795 188.707198,132.579995 C188.606398,132.680795 188.505598,132.680795 188.354398,132.680795 C188.152798,132.428795 190.672798,129.102395 191.126398,128.799995 C191.479198,128.547995 192.184797,128.346395 192.285597,129.001595 Z M183.465598,122.651195 C183.465598,122.651195 183.163198,122.197596 183.163198,122.147196 C183.112798,121.995996 182.961598,120.433596 183.515998,120.685596 C183.515998,120.534396 184.120798,119.778396 183.818398,120.433596 C184.271998,119.828796 184.675198,119.123196 185.027998,118.367196 L184.423198,119.274396 C184.876798,118.367196 185.582398,116.502396 185.632798,116.149596 C185.632798,116.099196 185.531998,115.645596 185.632798,115.544796 C184.574398,115.141596 185.330398,114.536796 185.783998,114.183996 C185.683198,114.183996 185.632798,114.183996 185.582398,114.083196 C185.380798,113.881596 185.985598,113.730396 186.136798,113.679996 C186.842398,113.377596 187.749598,113.528796 188.404798,113.881596 C188.959198,114.234396 189.463198,114.990396 189.664798,115.595196 C189.866398,116.250396 189.362398,117.006396 188.908798,117.409596 C188.707198,117.611196 188.354398,117.762396 188.102398,117.963996 C187.799998,118.316796 187.850398,118.770396 187.598398,119.123196 C187.447198,119.375196 187.144798,119.475996 186.993598,119.727996 C186.791998,119.879196 186.791998,120.030396 186.943198,120.181596 C186.741598,120.282396 186.590398,120.383196 186.439198,120.534396 C185.935198,121.340796 185.632798,121.794396 185.027998,122.247996 C185.582398,121.895196 185.935198,121.592796 186.439198,120.937596 C186.842398,120.433596 187.295998,120.080796 187.900798,119.828796 C187.396798,120.383196 187.295998,121.038396 186.691198,121.441596 C186.086398,121.794396 186.640798,121.088796 185.985598,121.693596 C185.985598,121.693596 186.287998,121.643196 186.136798,121.743996 C185.683198,122.147196 185.229598,122.802395 184.624798,123.054395 C184.322398,123.155195 184.120798,123.356795 183.767998,123.205595 C183.415198,123.003995 183.566398,122.802395 183.465598,122.651195 Z M182.507998,134.646395 C182.558398,134.545595 182.558398,134.545595 182.507998,134.595995 L182.407198,134.999195 L182.507998,134.696795 L182.507998,134.646395 Z M184.171198,119.677596 C184.171198,119.677596 184.271998,119.576796 184.372798,119.375196 L184.171198,119.677596 Z M183.572536,120.685859 C183.616798,120.689776 183.616798,120.735996 183.616798,120.735996 C183.667198,120.685596 183.667198,120.685596 183.667198,120.635196 C183.620235,120.682158 183.617032,120.685361 183.576038,120.68558 L183.572536,120.685859 Z M186.792078,143.20742 C186.794322,143.108918 186.84356,143.009307 186.892798,142.861594 C186.640798,143.315194 186.892798,142.105594 186.892798,142.055194 C187.043998,141.500794 187.245598,140.996794 187.396798,140.492794 C187.749598,139.535194 188.001598,138.627995 188.203198,137.670395 C188.303998,137.267195 189.563998,133.033595 190.067998,133.134395 C190.168798,133.134395 189.967198,133.487195 190.017598,133.537595 C190.219198,133.083995 190.370398,132.630395 190.521598,132.176795 C190.471198,132.277595 190.420798,132.378395 190.319998,132.428795 C190.319998,132.428795 192.184797,127.187195 192.386397,126.632795 C192.789597,125.624795 193.041597,124.616795 193.394397,123.558395 C193.444797,123.356795 193.696797,122.903195 193.696797,122.651195 C193.696797,122.449596 193.444797,122.348796 193.444797,122.147196 C193.343997,120.836796 194.150397,119.475996 195.813597,119.929596 C196.670397,120.131196 197.275197,120.836796 197.627997,121.592796 C198.081597,122.449596 197.829597,122.802395 197.678397,123.558395 L197.829597,123.306395 C198.031197,123.306395 197.627997,125.423195 197.325597,125.372795 C197.275197,125.372795 197.476797,124.616795 197.476797,124.465595 C197.073597,125.876795 196.619997,127.237595 196.166397,128.598395 L196.166397,128.547995 L195.863997,129.404795 C195.813597,129.555995 195.763197,129.757595 195.662397,129.908795 C194.452797,133.436795 192.537597,139.434394 192.335997,140.190394 C192.739197,139.383994 193.192797,138.577595 193.646397,137.821595 C193.192797,138.476795 192.839997,138.980795 192.839997,138.980795 C192.839997,138.980795 197.879997,130.815995 198.383997,130.059995 C200.198397,127.338395 202.012797,124.515995 204.079197,121.895196 C204.986397,120.786396 206.548797,118.719996 208.211997,118.820796 C210.933596,119.022396 211.588796,122.096796 211.538396,124.112795 C211.588796,123.860795 211.639196,123.407195 211.739996,123.457595 C212.495996,123.860795 211.336796,127.590395 211.135196,128.195195 C210.580796,129.858395 209.723996,131.521595 208.816796,133.083995 C209.824796,132.529595 210.731996,131.874395 211.689596,131.219195 C212.546396,130.664795 213.655196,130.614395 214.511996,130.261595 C214.461596,130.261595 214.360796,130.211195 214.360796,130.160795 C214.209596,129.757595 216.830396,128.951195 217.132796,128.900795 C217.283996,128.799995 217.535996,128.799995 217.737596,128.749595 C217.334396,130.110395 216.074396,130.563995 215.167196,131.370395 C214.461596,132.025595 213.453596,132.731195 212.647196,133.285595 C211.991996,133.739195 211.286396,133.587995 210.782396,134.091995 C210.731996,134.091995 210.731996,134.041595 210.731996,134.041595 C210.580796,134.192795 210.429596,134.444795 210.076796,134.646395 C209.623196,134.948795 209.421596,135.251195 209.018396,135.553595 C208.312797,136.057595 207.808797,135.855995 207.304797,136.107995 L207.355197,136.107995 C207.002397,136.259195 204.683997,139.031195 204.482397,139.333594 C203.675997,140.240794 202.819197,141.047194 202.063197,141.903994 C201.407997,142.609594 200.047197,144.272794 198.938397,144.272794 C197.728797,144.272794 196.619997,142.055194 196.317597,141.097594 C195.863997,139.736794 196.519197,140.190394 197.375997,139.988794 C198.585597,139.686394 199.643997,138.174395 200.450397,137.317595 C201.508797,136.158395 202.466397,134.898395 203.524797,133.688795 C203.927997,133.285595 204.331197,132.882395 204.633597,132.378395 C204.683997,132.227195 204.935997,131.370395 205.137597,131.370395 C205.137597,131.370395 205.087197,131.571995 204.986397,131.723195 L205.288797,131.269595 C205.137597,131.370395 205.540797,130.412795 205.591197,130.362395 C205.843197,129.807995 206.145597,129.303995 206.447997,128.749595 C207.002397,127.741595 207.657597,126.632795 207.909597,125.473595 C208.060797,124.919195 208.463997,122.802395 207.355197,123.003995 C206.951997,123.054395 204.633597,124.868795 204.532797,124.818395 C204.482397,124.767995 204.835197,124.465595 204.784797,124.415195 C204.381597,124.818395 203.927997,125.271995 203.524797,125.775995 C203.625597,125.675195 203.726397,125.624795 203.827197,125.574395 C203.423997,125.927195 199.391997,131.571995 199.039197,132.075995 C198.232797,133.184795 197.577597,134.394395 196.821597,135.603995 C196.418397,136.208795 196.065597,136.964795 195.561597,137.519195 C195.309597,137.720795 195.007197,137.821595 194.855997,138.023195 C194.301597,138.779195 193.847997,139.938394 193.343997,140.845594 C192.688797,141.954394 192.083997,143.163994 191.378398,144.272794 C190.773598,145.381594 190.471198,146.540794 190.067998,147.750394 C189.765598,148.607194 189.412798,149.363194 189.160798,150.169594 C189.211198,150.018394 189.311998,149.867194 189.412798,149.766394 C189.563998,149.715994 189.160798,151.580794 189.110398,151.681594 L188.656798,153.999994 C188.303998,155.663194 188.051998,157.376793 187.749598,159.039993 C187.699198,159.644793 187.699198,160.803993 187.195198,161.307993 C186.086398,162.366393 184.675198,160.602393 184.221598,159.745593 C182.911198,157.326393 184.120798,153.395194 184.523998,150.774394 C184.775998,149.060794 185.128798,147.296794 185.783998,145.683994 C186.035998,145.179994 186.287998,144.776794 186.489598,144.222394 C186.489598,144.171994 186.590398,143.113594 186.741598,143.063194 C186.741598,143.10662 186.779015,143.150046 186.78937,143.193472 L186.792078,143.20742 Z M191.327998,134.041595 C191.327998,134.041595 191.327998,133.991195 191.277598,133.940795 C191.378398,134.343995 190.420798,136.359995 190.319998,136.611995 C189.513598,138.678395 188.505598,140.744794 187.850398,142.861594 C187.144798,145.179994 186.237598,147.599194 185.683198,150.068794 C186.136798,148.304794 186.741598,146.540794 187.396798,144.927994 C188.203198,143.012794 188.959198,140.996794 189.614398,138.980795 C189.916798,138.023195 190.219198,137.065595 190.571998,136.107995 C190.823998,135.503195 191.277598,134.747195 191.327998,134.091995 L191.327998,134.041595 Z M193.274697,136.404095 C193.192797,136.687595 193.117197,136.964795 193.041597,137.216795 C193.142397,136.964795 193.230597,136.700195 193.312497,136.422995 L193.274697,136.404095 Z M200.450397,127.287995 C200.097597,127.741595 199.795197,128.245595 199.492797,128.699195 L200.450397,127.287995 Z M208.665597,133.386395 L209.119196,133.083995 C208.967996,133.184795 208.715997,133.235195 208.665597,133.386395 Z M196.619997,127.489595 C196.569597,127.539995 196.519197,127.691195 196.468797,127.892795 L196.619997,127.489595 Z M198.937131,129.489043 C198.934073,129.509919 198.923635,129.520357 198.887997,129.555995 L198.887997,129.606395 C198.920746,129.540898 198.953494,129.475401 198.958589,129.451384 L198.937131,129.489043 Z M196.166397,128.547995 C196.216797,128.497595 196.267197,128.447195 196.267197,128.346395 L196.166397,128.547995 Z M185.588698,150.471994 C185.582398,150.484594 185.582398,150.497194 185.582398,150.522394 C185.607598,150.497194 185.620198,150.484594 185.626498,150.471994 L185.588698,150.471994 Z M193.847997,134.948795 L193.797597,134.999195 C193.797597,134.999195 193.847997,134.999195 193.847997,134.948795 Z M237.191995,128.850395 C238.653595,130.715195 232.756795,131.118395 232.202395,131.219195 C232.101595,131.219195 231.446395,131.420795 231.496795,131.370395 C230.992795,131.571995 231.093595,131.521595 230.740795,131.975195 C230.337595,132.579995 229.984795,133.235195 229.631995,133.839995 C229.430395,134.041595 227.615995,136.712795 227.263195,136.561595 C227.263195,136.561595 227.666395,136.057595 227.615995,136.007195 L226.154395,137.720795 C226.305595,137.569595 226.406395,137.519195 226.406395,137.569595 C226.103995,138.426395 224.440796,139.434394 223.684796,139.988794 C222.878396,140.593594 221.870396,141.147994 220.811996,141.299194 C219.803996,141.399994 218.695196,141.198394 217.737596,140.744794 C214.763996,139.283194 212.999996,135.251195 214.612796,132.176795 C215.469596,130.563995 216.074396,128.749595 217.283996,127.136795 C217.989596,126.279995 218.745596,125.423195 219.703196,124.818395 C220.106396,124.515995 220.559996,124.263995 221.063996,124.062395 C221.416796,123.860795 222.172796,123.810395 222.424796,123.608795 C222.727196,123.407195 223.029596,122.096796 223.231196,121.693596 C223.432796,121.290396 223.684796,120.887196 223.936796,120.534396 C224.642396,119.526396 225.499195,118.518396 226.557595,117.913596 C228.271195,116.955996 229.984795,117.913596 231.244795,119.173596 C231.244795,119.173596 232.101595,119.727996 232.051195,120.030396 L231.849595,119.828796 L232.051195,120.231996 L232.101595,120.282396 C231.950395,119.879196 232.555195,120.635196 232.555195,120.635196 C232.807195,121.038396 232.958395,121.491996 233.059195,121.945596 C233.210395,122.651195 233.159995,123.407195 233.059195,124.112795 C232.857595,125.977595 232.303195,127.892795 231.748795,129.707195 C233.260795,129.455195 234.772795,129.102395 236.234395,128.799995 C236.587195,128.699195 236.939995,128.447195 237.191995,128.799995 C237.242395,128.900795 237.191995,128.850395 237.191995,128.850395 Z M219.753596,139.031195 C223.281596,138.375995 226.003195,134.293595 227.464795,131.370395 C225.247196,131.067995 222.525596,130.110395 221.971196,127.590395 C221.618396,127.993595 220.912796,129.203195 220.156796,130.715195 L220.459196,130.261595 C220.358396,130.765595 215.519996,139.635994 219.703196,139.031195 L219.753596,139.031195 Z M229.682395,125.070395 C229.934395,123.810395 230.639995,121.340796 229.883995,120.030396 C228.875995,118.467996 227.011195,120.735996 226.255195,121.743996 C226.204795,121.743996 226.204795,121.794396 226.204795,121.794396 L226.154395,121.895196 L226.154395,121.844796 C226.103995,121.945596 226.053595,121.995996 226.103995,121.995996 C225.851995,122.348796 225.549595,122.651195 225.247196,123.205595 C225.297596,123.155195 225.851995,122.247996 225.902395,122.399196 C226.053595,122.701595 225.095996,124.314395 224.944796,124.616795 C224.642396,125.423195 224.390396,126.229595 224.289596,127.086395 C224.188796,127.943195 224.087996,128.900795 224.793596,129.505595 C225.196796,129.858395 225.851995,129.959195 226.406395,130.009595 C226.708795,130.059995 227.363995,130.160795 227.666395,130.059995 C228.170395,129.959195 228.019195,130.110395 228.271195,129.606395 C229.027195,128.346395 229.329595,126.481595 229.682395,125.070395 Z M226.204795,121.794396 L226.255195,121.743996 C226.255195,121.794396 226.204795,121.794396 226.204795,121.794396 Z" id="Pero-es-un-Prototipo" fill="#D30021"></path>
    </g>
</svg>