<?xml version="1.0" encoding="UTF-8" standalone="no"?>
<svg width="300px" height="600px" viewBox="0 0 300 600" version="1.1" xmlns="http://www.w3.org/2000/svg" xmlns:xlink="http://www.w3.org/1999/xlink">
    <!-- Generator: Sketch 50.2 (55047) - http://www.bohemiancoding.com/sketch -->
    <title>300_600_btn</title>
    <desc>Created with Sketch.</desc>
    <defs></defs>
    <g id="300_600_btn" stroke="none" stroke-width="1" fill="none" fill-rule="evenodd">
        <rect id="Rectangle-Copy-10" fill="#D30021" fill-rule="nonzero" x="52" y="524" width="196" height="45"></rect>
        <path d="M94.6003993,555 L91.5811992,555 L89.5609992,549.7386 C89.3833983,549.250197 89.1096011,548.909801 88.7395992,548.7174 C88.3695973,548.524999 87.8886022,548.4288 87.2965992,548.4288 L84.4327991,548.4288 L84.4327991,555 L81.5911991,555 L81.5911991,539.1936 L88.3621992,539.1936 C90.1530082,539.1936 91.5145946,539.585796 92.4469993,540.3702 C93.3794039,541.154604 93.8455993,542.279393 93.8455993,543.7446 C93.8455993,544.795405 93.568102,545.687096 93.0130993,546.4197 C92.4580965,547.152304 91.6700043,547.673998 90.6487992,547.9848 C91.5812039,548.177201 92.2545972,548.828394 92.6689993,549.9384 L94.6003993,555 Z M87.9625992,546.2088 C89.0430046,546.2088 89.8421966,546.009002 90.3601992,545.6094 C90.8782018,545.209798 91.1371992,544.603004 91.1371992,543.789 C91.1371992,542.989796 90.8819018,542.394102 90.3712992,542.0019 C89.8606967,541.609698 89.0578047,541.4136 87.9625992,541.4136 L84.3883991,541.4136 L84.3883991,546.2088 L87.9625992,546.2088 Z M97.1755993,555 L97.1755993,539.1936 L107.742799,539.1936 L107.742799,541.458 L99.9727993,541.458 L99.9727993,545.8314 L107.276599,545.8314 L107.276599,548.0958 L99.9727993,548.0958 L99.9727993,552.7356 L107.742799,552.7356 L107.742799,555 L97.1755993,555 Z M112.3271,554.7114 C111.268894,554.385798 110.369803,553.919603 109.629799,553.3128 L110.606599,551.226 C111.376203,551.803203 112.179095,552.228699 113.0153,552.5025 C113.851504,552.776301 114.765395,552.9132 115.757,552.9132 C116.852205,552.9132 117.699497,552.720802 118.2989,552.336 C118.898303,551.951198 119.198,551.411003 119.198,550.7154 C119.198,550.123397 118.920502,549.668302 118.3655,549.3501 C117.810497,549.031898 116.896606,548.732201 115.6238,548.451 C113.64059,548.021798 112.197604,547.466803 111.294799,546.786 C110.391995,546.105196 109.940599,545.113606 109.940599,543.8112 C109.940599,542.878795 110.192197,542.050003 110.695399,541.3248 C111.198602,540.599596 111.912695,540.029802 112.8377,539.6154 C113.762704,539.200998 114.831993,538.9938 116.0456,538.9938 C117.155605,538.9938 118.210095,539.160298 119.2091,539.4933 C120.208105,539.826301 121.025796,540.288797 121.6622,540.8808 L120.7076,542.9676 C119.301593,541.842794 117.747608,541.2804 116.0456,541.2804 C115.024394,541.2804 114.217802,541.491298 113.6258,541.9131 C113.033797,542.334902 112.7378,542.908396 112.7378,543.6336 C112.7378,544.255203 113.000497,544.728798 113.5259,545.0544 C114.051302,545.380002 114.950393,545.683398 116.2232,545.9646 C117.540406,546.275401 118.613395,546.612098 119.4422,546.9747 C120.271004,547.337302 120.907397,547.803497 121.3514,548.3733 C121.795402,548.943103 122.0174,549.657196 122.0174,550.5156 C122.0174,551.462805 121.765802,552.287896 121.2626,552.9909 C120.759397,553.693903 120.034204,554.237798 119.087,554.6226 C118.139795,555.007402 117.022406,555.1998 115.7348,555.1998 C114.521193,555.1998 113.385305,555.037002 112.3271,554.7114 Z M124.6814,555 L124.6814,539.1936 L135.2486,539.1936 L135.2486,541.458 L127.4786,541.458 L127.4786,545.8314 L134.7824,545.8314 L134.7824,548.0958 L127.4786,548.0958 L127.4786,552.7356 L135.2486,552.7356 L135.2486,555 L124.6814,555 Z M150.8996,555 L147.8804,555 L145.8602,549.7386 C145.682599,549.250197 145.408802,548.909801 145.0388,548.7174 C144.668798,548.524999 144.187803,548.4288 143.5958,548.4288 L140.732,548.4288 L140.732,555 L137.8904,555 L137.8904,539.1936 L144.6614,539.1936 C146.452209,539.1936 147.813795,539.585796 148.7462,540.3702 C149.678605,541.154604 150.1448,542.279393 150.1448,543.7446 C150.1448,544.795405 149.867303,545.687096 149.3123,546.4197 C148.757297,547.152304 147.969205,547.673998 146.948,547.9848 C147.880405,548.177201 148.553798,548.828394 148.9682,549.9384 L150.8996,555 Z M144.2618,546.2088 C145.342205,546.2088 146.141397,546.009002 146.6594,545.6094 C147.177403,545.209798 147.4364,544.603004 147.4364,543.789 C147.4364,542.989796 147.181103,542.394102 146.6705,542.0019 C146.159897,541.609698 145.357005,541.4136 144.2618,541.4136 L140.6876,541.4136 L140.6876,546.2088 L144.2618,546.2088 Z M165.0632,539.1936 L167.9714,539.1936 L160.934,555 L158.603,555 L151.5656,539.1936 L154.5404,539.1936 L159.8018,551.4036 L165.0632,539.1936 Z M181.5578,555 L179.9816,551.2926 L172.256,551.2926 L170.6576,555 L167.7716,555 L174.92,539.1936 L177.251,539.1936 L184.4216,555 L181.5578,555 Z M173.2106,549.0726 L179.027,549.0726 L176.1188,542.3016 L173.2106,549.0726 Z M205.334001,539.1936 L198.918201,548.7396 L198.918201,555 L196.054401,555 L196.054401,548.7396 L189.638601,539.1936 L192.902001,539.1936 L197.475201,546.342 L202.070601,539.1936 L205.334001,539.1936 Z M218.254401,555 L216.678201,551.2926 L208.952601,551.2926 L207.354201,555 L204.468201,555 L211.616601,539.1936 L213.947601,539.1936 L221.118201,555 L218.254401,555 Z M209.907201,549.0726 L215.723601,549.0726 L212.815401,542.3016 L209.907201,549.0726 Z" id="RESERVA-YA" fill="#F5F9FB"></path>
    </g>
</svg>